<svg xmlns="http://www.w3.org/2000/svg" xmlns:xlink="http://www.w3.org/1999/xlink" width="2000" zoomAndPan="magnify" viewBox="0 0 1500 749.999995" height="1000" preserveAspectRatio="xMidYMid meet" version="1.0"><defs><filter x="0%" y="0%" width="100%" height="100%" id="ec9bf36529"><feColorMatrix values="0 0 0 0 1 0 0 0 0 1 0 0 0 0 1 0 0 0 1 0" color-interpolation-filters="sRGB"/></filter><g/><clipPath id="d078b6e88c"><path d="M 103.261719 185.066406 L 484 185.066406 L 484 564.566406 L 103.261719 564.566406 Z M 103.261719 185.066406 " clip-rule="nonzero"/></clipPath><clipPath id="c3feaeb6ef"><path d="M 182.402344 185.066406 L 403.988281 185.066406 C 405.285156 185.066406 406.578125 185.101562 407.871094 185.164062 C 409.164062 185.226562 410.457031 185.320312 411.746094 185.449219 C 413.035156 185.574219 414.320312 185.734375 415.601562 185.925781 C 416.882812 186.113281 418.15625 186.335938 419.425781 186.589844 C 420.699219 186.839844 421.960938 187.125 423.21875 187.441406 C 424.472656 187.753906 425.722656 188.101562 426.960938 188.476562 C 428.199219 188.851562 429.429688 189.257812 430.648438 189.695312 C 431.867188 190.128906 433.078125 190.597656 434.273438 191.09375 C 435.46875 191.585938 436.652344 192.113281 437.824219 192.667969 C 438.996094 193.21875 440.152344 193.800781 441.292969 194.414062 C 442.4375 195.023438 443.5625 195.660156 444.671875 196.328125 C 445.785156 196.992188 446.878906 197.6875 447.957031 198.40625 C 449.03125 199.125 450.089844 199.871094 451.132812 200.640625 C 452.171875 201.414062 453.191406 202.210938 454.191406 203.03125 C 455.195312 203.851562 456.175781 204.699219 457.132812 205.570312 C 458.09375 206.4375 459.03125 207.332031 459.949219 208.246094 C 460.863281 209.164062 461.757812 210.101562 462.625 211.058594 C 463.496094 212.019531 464.339844 213 465.164062 214 C 465.984375 215.003906 466.78125 216.023438 467.550781 217.0625 C 468.324219 218.105469 469.070312 219.164062 469.789062 220.238281 C 470.507812 221.316406 471.203125 222.410156 471.867188 223.519531 C 472.535156 224.632812 473.171875 225.757812 473.78125 226.902344 C 474.390625 228.042969 474.976562 229.199219 475.527344 230.371094 C 476.082031 231.542969 476.605469 232.726562 477.101562 233.921875 C 477.597656 235.117188 478.0625 236.324219 478.5 237.546875 C 478.9375 238.765625 479.34375 239.996094 479.71875 241.234375 C 480.09375 242.472656 480.441406 243.722656 480.753906 244.976562 C 481.070312 246.234375 481.351562 247.496094 481.605469 248.765625 C 481.859375 250.039062 482.078125 251.3125 482.269531 252.59375 C 482.460938 253.875 482.617188 255.160156 482.746094 256.449219 C 482.871094 257.738281 482.96875 259.03125 483.03125 260.324219 C 483.09375 261.617188 483.125 262.910156 483.125 264.207031 L 483.125 485.792969 C 483.125 487.089844 483.09375 488.382812 483.03125 489.675781 C 482.96875 490.96875 482.871094 492.261719 482.746094 493.550781 C 482.617188 494.839844 482.460938 496.125 482.269531 497.40625 C 482.078125 498.6875 481.859375 499.960938 481.605469 501.230469 C 481.351562 502.503906 481.070312 503.765625 480.753906 505.023438 C 480.441406 506.277344 480.09375 507.527344 479.71875 508.765625 C 479.34375 510.003906 478.9375 511.234375 478.5 512.453125 C 478.0625 513.671875 477.597656 514.882812 477.101562 516.078125 C 476.605469 517.273438 476.082031 518.457031 475.527344 519.628906 C 474.976562 520.800781 474.390625 521.957031 473.78125 523.097656 C 473.171875 524.242188 472.535156 525.367188 471.867188 526.476562 C 471.203125 527.589844 470.507812 528.683594 469.789062 529.761719 C 469.070312 530.835938 468.324219 531.894531 467.550781 532.9375 C 466.78125 533.976562 465.984375 534.996094 465.164062 535.996094 C 464.339844 537 463.496094 537.980469 462.625 538.9375 C 461.757812 539.898438 460.863281 540.835938 459.949219 541.753906 C 459.03125 542.667969 458.09375 543.5625 457.132812 544.429688 C 456.175781 545.300781 455.195312 546.144531 454.191406 546.96875 C 453.191406 547.789062 452.171875 548.585938 451.132812 549.359375 C 450.089844 550.128906 449.03125 550.875 447.957031 551.59375 C 446.878906 552.3125 445.785156 553.007812 444.671875 553.671875 C 443.5625 554.339844 442.4375 554.976562 441.292969 555.585938 C 440.152344 556.195312 438.996094 556.78125 437.824219 557.332031 C 436.652344 557.886719 435.46875 558.410156 434.273438 558.90625 C 433.078125 559.402344 431.867188 559.867188 430.648438 560.304688 C 429.429688 560.742188 428.199219 561.148438 426.960938 561.523438 C 425.722656 561.898438 424.472656 562.246094 423.21875 562.558594 C 421.960938 562.875 420.699219 563.15625 419.425781 563.410156 C 418.15625 563.664062 416.882812 563.882812 415.601562 564.074219 C 414.320312 564.265625 413.035156 564.421875 411.746094 564.550781 C 410.457031 564.675781 409.164062 564.773438 407.871094 564.835938 C 406.578125 564.898438 405.285156 564.929688 403.988281 564.929688 L 182.402344 564.929688 C 181.105469 564.929688 179.8125 564.898438 178.519531 564.835938 C 177.226562 564.773438 175.933594 564.675781 174.644531 564.550781 C 173.355469 564.421875 172.070312 564.265625 170.789062 564.074219 C 169.507812 563.882812 168.234375 563.664062 166.960938 563.410156 C 165.691406 563.15625 164.429688 562.875 163.171875 562.558594 C 161.917969 562.246094 160.667969 561.898438 159.429688 561.523438 C 158.191406 561.148438 156.960938 560.742188 155.742188 560.304688 C 154.519531 559.867188 153.3125 559.402344 152.117188 558.90625 C 150.921875 558.410156 149.738281 557.886719 148.566406 557.332031 C 147.394531 556.78125 146.238281 556.195312 145.097656 555.585938 C 143.953125 554.976562 142.828125 554.339844 141.714844 553.671875 C 140.605469 553.007812 139.511719 552.3125 138.433594 551.59375 C 137.359375 550.875 136.300781 550.128906 135.257812 549.359375 C 134.21875 548.585938 133.199219 547.789062 132.195312 546.96875 C 131.195312 546.144531 130.214844 545.300781 129.253906 544.429688 C 128.296875 543.5625 127.359375 542.667969 126.441406 541.753906 C 125.527344 540.835938 124.632812 539.898438 123.765625 538.9375 C 122.894531 537.980469 122.046875 537 121.226562 535.996094 C 120.40625 534.996094 119.609375 533.976562 118.835938 532.9375 C 118.066406 531.894531 117.320312 530.835938 116.601562 529.761719 C 115.882812 528.683594 115.1875 527.589844 114.523438 526.476562 C 113.855469 525.367188 113.21875 524.242188 112.609375 523.097656 C 111.996094 521.957031 111.414062 520.800781 110.863281 519.628906 C 110.308594 518.457031 109.78125 517.273438 109.289062 516.078125 C 108.792969 514.882812 108.324219 513.671875 107.890625 512.453125 C 107.453125 511.234375 107.046875 510.003906 106.671875 508.765625 C 106.296875 507.527344 105.949219 506.277344 105.636719 505.023438 C 105.320312 503.765625 105.035156 502.503906 104.785156 501.230469 C 104.53125 499.960938 104.308594 498.6875 104.121094 497.40625 C 103.929688 496.125 103.769531 494.839844 103.644531 493.550781 C 103.515625 492.261719 103.421875 490.96875 103.359375 489.675781 C 103.296875 488.382812 103.261719 487.089844 103.261719 485.792969 L 103.261719 264.207031 C 103.261719 262.910156 103.296875 261.617188 103.359375 260.324219 C 103.421875 259.03125 103.515625 257.738281 103.644531 256.449219 C 103.769531 255.160156 103.929688 253.875 104.121094 252.59375 C 104.308594 251.3125 104.53125 250.039062 104.785156 248.765625 C 105.035156 247.496094 105.320312 246.234375 105.636719 244.976562 C 105.949219 243.722656 106.296875 242.472656 106.671875 241.234375 C 107.046875 239.996094 107.453125 238.765625 107.890625 237.546875 C 108.324219 236.324219 108.792969 235.117188 109.289062 233.921875 C 109.78125 232.726562 110.308594 231.542969 110.863281 230.371094 C 111.414062 229.199219 111.996094 228.042969 112.609375 226.902344 C 113.21875 225.757812 113.855469 224.632812 114.523438 223.519531 C 115.1875 222.410156 115.882812 221.316406 116.601562 220.238281 C 117.320312 219.164062 118.066406 218.105469 118.835938 217.0625 C 119.609375 216.023438 120.40625 215.003906 121.226562 214 C 122.046875 213 122.894531 212.019531 123.765625 211.058594 C 124.632812 210.101562 125.527344 209.164062 126.441406 208.246094 C 127.359375 207.332031 128.296875 206.4375 129.253906 205.570312 C 130.214844 204.699219 131.195312 203.851562 132.195312 203.03125 C 133.199219 202.210938 134.21875 201.414062 135.257812 200.640625 C 136.300781 199.871094 137.359375 199.125 138.433594 198.40625 C 139.511719 197.6875 140.605469 196.992188 141.714844 196.328125 C 142.828125 195.660156 143.953125 195.023438 145.097656 194.414062 C 146.238281 193.800781 147.394531 193.21875 148.566406 192.667969 C 149.738281 192.113281 150.921875 191.585938 152.117188 191.09375 C 153.3125 190.597656 154.519531 190.128906 155.742188 189.695312 C 156.960938 189.257812 158.191406 188.851562 159.429688 188.476562 C 160.667969 188.101562 161.917969 187.753906 163.171875 187.441406 C 164.429688 187.125 165.691406 186.839844 166.960938 186.589844 C 168.234375 186.335938 169.507812 186.113281 170.789062 185.925781 C 172.070312 185.734375 173.355469 185.574219 174.644531 185.449219 C 175.933594 185.320312 177.226562 185.226562 178.519531 185.164062 C 179.8125 185.101562 181.105469 185.066406 182.402344 185.066406 Z M 182.402344 185.066406 " clip-rule="nonzero"/></clipPath><linearGradient x1="0.000000000256309" gradientTransform="matrix(379.863277, 0, 0, 379.863277, 103.263303, 185.068069)" y1="0" x2="1" gradientUnits="userSpaceOnUse" y2="0" id="ba01bcd361"><stop stop-opacity="1" stop-color="rgb(100%, 36.859131%, 34.118652%)" offset="0"/><stop stop-opacity="1" stop-color="rgb(100%, 37.045288%, 34.155273%)" offset="0.0078125"/><stop stop-opacity="1" stop-color="rgb(100%, 37.419128%, 34.230042%)" offset="0.015625"/><stop stop-opacity="1" stop-color="rgb(100%, 37.792969%, 34.303284%)" offset="0.0234375"/><stop stop-opacity="1" stop-color="rgb(100%, 38.166809%, 34.376526%)" offset="0.03125"/><stop stop-opacity="1" stop-color="rgb(100%, 38.540649%, 34.449768%)" offset="0.0390625"/><stop stop-opacity="1" stop-color="rgb(100%, 38.91449%, 34.52301%)" offset="0.046875"/><stop stop-opacity="1" stop-color="rgb(100%, 39.28833%, 34.596252%)" offset="0.0546875"/><stop stop-opacity="1" stop-color="rgb(100%, 39.66217%, 34.671021%)" offset="0.0625"/><stop stop-opacity="1" stop-color="rgb(100%, 40.036011%, 34.744263%)" offset="0.0703125"/><stop stop-opacity="1" stop-color="rgb(100%, 40.409851%, 34.817505%)" offset="0.078125"/><stop stop-opacity="1" stop-color="rgb(100%, 40.783691%, 34.890747%)" offset="0.0859375"/><stop stop-opacity="1" stop-color="rgb(100%, 41.157532%, 34.963989%)" offset="0.09375"/><stop stop-opacity="1" stop-color="rgb(100%, 41.531372%, 35.038757%)" offset="0.101562"/><stop stop-opacity="1" stop-color="rgb(100%, 41.905212%, 35.112%)" offset="0.109375"/><stop stop-opacity="1" stop-color="rgb(100%, 42.279053%, 35.185242%)" offset="0.117187"/><stop stop-opacity="1" stop-color="rgb(100%, 42.652893%, 35.258484%)" offset="0.125"/><stop stop-opacity="1" stop-color="rgb(100%, 43.026733%, 35.331726%)" offset="0.132812"/><stop stop-opacity="1" stop-color="rgb(100%, 43.400574%, 35.404968%)" offset="0.140625"/><stop stop-opacity="1" stop-color="rgb(100%, 43.774414%, 35.479736%)" offset="0.148438"/><stop stop-opacity="1" stop-color="rgb(100%, 44.148254%, 35.552979%)" offset="0.15625"/><stop stop-opacity="1" stop-color="rgb(100%, 44.522095%, 35.626221%)" offset="0.164062"/><stop stop-opacity="1" stop-color="rgb(100%, 44.895935%, 35.699463%)" offset="0.171875"/><stop stop-opacity="1" stop-color="rgb(100%, 45.269775%, 35.772705%)" offset="0.179687"/><stop stop-opacity="1" stop-color="rgb(100%, 45.643616%, 35.847473%)" offset="0.1875"/><stop stop-opacity="1" stop-color="rgb(100%, 46.017456%, 35.920715%)" offset="0.195313"/><stop stop-opacity="1" stop-color="rgb(100%, 46.391296%, 35.993958%)" offset="0.203125"/><stop stop-opacity="1" stop-color="rgb(100%, 46.765137%, 36.0672%)" offset="0.210938"/><stop stop-opacity="1" stop-color="rgb(100%, 47.138977%, 36.140442%)" offset="0.21875"/><stop stop-opacity="1" stop-color="rgb(100%, 47.512817%, 36.213684%)" offset="0.226562"/><stop stop-opacity="1" stop-color="rgb(100%, 47.886658%, 36.288452%)" offset="0.234375"/><stop stop-opacity="1" stop-color="rgb(100%, 48.260498%, 36.361694%)" offset="0.242187"/><stop stop-opacity="1" stop-color="rgb(100%, 48.634338%, 36.434937%)" offset="0.25"/><stop stop-opacity="1" stop-color="rgb(100%, 49.008179%, 36.508179%)" offset="0.257812"/><stop stop-opacity="1" stop-color="rgb(100%, 49.382019%, 36.581421%)" offset="0.265625"/><stop stop-opacity="1" stop-color="rgb(100%, 49.755859%, 36.654663%)" offset="0.273438"/><stop stop-opacity="1" stop-color="rgb(100%, 50.1297%, 36.729431%)" offset="0.28125"/><stop stop-opacity="1" stop-color="rgb(100%, 50.50354%, 36.802673%)" offset="0.289062"/><stop stop-opacity="1" stop-color="rgb(100%, 50.87738%, 36.875916%)" offset="0.296875"/><stop stop-opacity="1" stop-color="rgb(100%, 51.251221%, 36.949158%)" offset="0.304688"/><stop stop-opacity="1" stop-color="rgb(100%, 51.625061%, 37.0224%)" offset="0.3125"/><stop stop-opacity="1" stop-color="rgb(100%, 51.998901%, 37.097168%)" offset="0.320312"/><stop stop-opacity="1" stop-color="rgb(100%, 52.372742%, 37.17041%)" offset="0.328125"/><stop stop-opacity="1" stop-color="rgb(100%, 52.746582%, 37.243652%)" offset="0.335937"/><stop stop-opacity="1" stop-color="rgb(100%, 53.120422%, 37.316895%)" offset="0.34375"/><stop stop-opacity="1" stop-color="rgb(100%, 53.494263%, 37.390137%)" offset="0.351562"/><stop stop-opacity="1" stop-color="rgb(100%, 53.868103%, 37.463379%)" offset="0.359375"/><stop stop-opacity="1" stop-color="rgb(100%, 54.241943%, 37.538147%)" offset="0.367188"/><stop stop-opacity="1" stop-color="rgb(100%, 54.615784%, 37.611389%)" offset="0.375"/><stop stop-opacity="1" stop-color="rgb(100%, 54.989624%, 37.684631%)" offset="0.382812"/><stop stop-opacity="1" stop-color="rgb(100%, 55.363464%, 37.757874%)" offset="0.390625"/><stop stop-opacity="1" stop-color="rgb(100%, 55.737305%, 37.831116%)" offset="0.398438"/><stop stop-opacity="1" stop-color="rgb(100%, 56.111145%, 37.905884%)" offset="0.40625"/><stop stop-opacity="1" stop-color="rgb(100%, 56.484985%, 37.979126%)" offset="0.414062"/><stop stop-opacity="1" stop-color="rgb(100%, 56.858826%, 38.052368%)" offset="0.421875"/><stop stop-opacity="1" stop-color="rgb(100%, 57.232666%, 38.12561%)" offset="0.429688"/><stop stop-opacity="1" stop-color="rgb(100%, 57.606506%, 38.198853%)" offset="0.4375"/><stop stop-opacity="1" stop-color="rgb(100%, 57.980347%, 38.272095%)" offset="0.445312"/><stop stop-opacity="1" stop-color="rgb(100%, 58.354187%, 38.346863%)" offset="0.453125"/><stop stop-opacity="1" stop-color="rgb(100%, 58.728027%, 38.420105%)" offset="0.460938"/><stop stop-opacity="1" stop-color="rgb(100%, 59.101868%, 38.493347%)" offset="0.46875"/><stop stop-opacity="1" stop-color="rgb(100%, 59.475708%, 38.566589%)" offset="0.476562"/><stop stop-opacity="1" stop-color="rgb(100%, 59.849548%, 38.639832%)" offset="0.484375"/><stop stop-opacity="1" stop-color="rgb(100%, 60.223389%, 38.713074%)" offset="0.492188"/><stop stop-opacity="1" stop-color="rgb(100%, 60.597229%, 38.787842%)" offset="0.5"/><stop stop-opacity="1" stop-color="rgb(100%, 60.971069%, 38.861084%)" offset="0.507812"/><stop stop-opacity="1" stop-color="rgb(100%, 61.34491%, 38.934326%)" offset="0.515625"/><stop stop-opacity="1" stop-color="rgb(100%, 61.71875%, 39.007568%)" offset="0.523438"/><stop stop-opacity="1" stop-color="rgb(100%, 62.09259%, 39.080811%)" offset="0.53125"/><stop stop-opacity="1" stop-color="rgb(100%, 62.466431%, 39.155579%)" offset="0.539063"/><stop stop-opacity="1" stop-color="rgb(100%, 62.840271%, 39.228821%)" offset="0.546875"/><stop stop-opacity="1" stop-color="rgb(100%, 63.214111%, 39.302063%)" offset="0.554688"/><stop stop-opacity="1" stop-color="rgb(100%, 63.587952%, 39.375305%)" offset="0.5625"/><stop stop-opacity="1" stop-color="rgb(100%, 63.960266%, 39.448547%)" offset="0.570313"/><stop stop-opacity="1" stop-color="rgb(100%, 64.334106%, 39.52179%)" offset="0.578125"/><stop stop-opacity="1" stop-color="rgb(100%, 64.707947%, 39.596558%)" offset="0.585937"/><stop stop-opacity="1" stop-color="rgb(100%, 65.081787%, 39.6698%)" offset="0.59375"/><stop stop-opacity="1" stop-color="rgb(100%, 65.455627%, 39.743042%)" offset="0.601562"/><stop stop-opacity="1" stop-color="rgb(100%, 65.829468%, 39.816284%)" offset="0.609375"/><stop stop-opacity="1" stop-color="rgb(100%, 66.203308%, 39.889526%)" offset="0.617187"/><stop stop-opacity="1" stop-color="rgb(100%, 66.577148%, 39.964294%)" offset="0.625"/><stop stop-opacity="1" stop-color="rgb(100%, 66.950989%, 40.037537%)" offset="0.632812"/><stop stop-opacity="1" stop-color="rgb(100%, 67.324829%, 40.110779%)" offset="0.640625"/><stop stop-opacity="1" stop-color="rgb(100%, 67.698669%, 40.184021%)" offset="0.648438"/><stop stop-opacity="1" stop-color="rgb(100%, 68.07251%, 40.257263%)" offset="0.65625"/><stop stop-opacity="1" stop-color="rgb(100%, 68.44635%, 40.330505%)" offset="0.664062"/><stop stop-opacity="1" stop-color="rgb(100%, 68.82019%, 40.405273%)" offset="0.671875"/><stop stop-opacity="1" stop-color="rgb(100%, 69.194031%, 40.478516%)" offset="0.679688"/><stop stop-opacity="1" stop-color="rgb(100%, 69.567871%, 40.551758%)" offset="0.6875"/><stop stop-opacity="1" stop-color="rgb(100%, 69.941711%, 40.625%)" offset="0.695312"/><stop stop-opacity="1" stop-color="rgb(100%, 70.315552%, 40.698242%)" offset="0.703125"/><stop stop-opacity="1" stop-color="rgb(100%, 70.689392%, 40.77301%)" offset="0.710938"/><stop stop-opacity="1" stop-color="rgb(100%, 71.063232%, 40.846252%)" offset="0.71875"/><stop stop-opacity="1" stop-color="rgb(100%, 71.437073%, 40.919495%)" offset="0.726562"/><stop stop-opacity="1" stop-color="rgb(100%, 71.810913%, 40.992737%)" offset="0.734375"/><stop stop-opacity="1" stop-color="rgb(100%, 72.184753%, 41.065979%)" offset="0.742188"/><stop stop-opacity="1" stop-color="rgb(100%, 72.558594%, 41.139221%)" offset="0.75"/><stop stop-opacity="1" stop-color="rgb(100%, 72.932434%, 41.213989%)" offset="0.757812"/><stop stop-opacity="1" stop-color="rgb(100%, 73.306274%, 41.287231%)" offset="0.765625"/><stop stop-opacity="1" stop-color="rgb(100%, 73.680115%, 41.360474%)" offset="0.773438"/><stop stop-opacity="1" stop-color="rgb(100%, 74.053955%, 41.433716%)" offset="0.78125"/><stop stop-opacity="1" stop-color="rgb(100%, 74.427795%, 41.506958%)" offset="0.789062"/><stop stop-opacity="1" stop-color="rgb(100%, 74.801636%, 41.5802%)" offset="0.796875"/><stop stop-opacity="1" stop-color="rgb(100%, 75.175476%, 41.654968%)" offset="0.804688"/><stop stop-opacity="1" stop-color="rgb(100%, 75.549316%, 41.72821%)" offset="0.8125"/><stop stop-opacity="1" stop-color="rgb(100%, 75.923157%, 41.801453%)" offset="0.820312"/><stop stop-opacity="1" stop-color="rgb(100%, 76.296997%, 41.874695%)" offset="0.828125"/><stop stop-opacity="1" stop-color="rgb(100%, 76.670837%, 41.947937%)" offset="0.835938"/><stop stop-opacity="1" stop-color="rgb(100%, 77.044678%, 42.022705%)" offset="0.84375"/><stop stop-opacity="1" stop-color="rgb(100%, 77.418518%, 42.095947%)" offset="0.851562"/><stop stop-opacity="1" stop-color="rgb(100%, 77.792358%, 42.169189%)" offset="0.859375"/><stop stop-opacity="1" stop-color="rgb(100%, 78.166199%, 42.242432%)" offset="0.867187"/><stop stop-opacity="1" stop-color="rgb(100%, 78.540039%, 42.315674%)" offset="0.875"/><stop stop-opacity="1" stop-color="rgb(100%, 78.913879%, 42.388916%)" offset="0.882812"/><stop stop-opacity="1" stop-color="rgb(100%, 79.28772%, 42.463684%)" offset="0.890625"/><stop stop-opacity="1" stop-color="rgb(100%, 79.66156%, 42.536926%)" offset="0.898438"/><stop stop-opacity="1" stop-color="rgb(100%, 80.0354%, 42.610168%)" offset="0.90625"/><stop stop-opacity="1" stop-color="rgb(100%, 80.409241%, 42.683411%)" offset="0.914062"/><stop stop-opacity="1" stop-color="rgb(100%, 80.783081%, 42.756653%)" offset="0.921875"/><stop stop-opacity="1" stop-color="rgb(100%, 81.156921%, 42.831421%)" offset="0.929688"/><stop stop-opacity="1" stop-color="rgb(100%, 81.530762%, 42.904663%)" offset="0.9375"/><stop stop-opacity="1" stop-color="rgb(100%, 81.904602%, 42.977905%)" offset="0.945312"/><stop stop-opacity="1" stop-color="rgb(100%, 82.278442%, 43.051147%)" offset="0.953125"/><stop stop-opacity="1" stop-color="rgb(100%, 82.652283%, 43.12439%)" offset="0.960938"/><stop stop-opacity="1" stop-color="rgb(100%, 83.026123%, 43.197632%)" offset="0.96875"/><stop stop-opacity="1" stop-color="rgb(100%, 83.399963%, 43.2724%)" offset="0.976562"/><stop stop-opacity="1" stop-color="rgb(100%, 83.773804%, 43.345642%)" offset="0.984375"/><stop stop-opacity="1" stop-color="rgb(100%, 84.147644%, 43.418884%)" offset="0.992188"/><stop stop-opacity="1" stop-color="rgb(100%, 84.521484%, 43.492126%)" offset="1"/></linearGradient><mask id="a5dce3c2c1"><g filter="url(#ec9bf36529)"><rect x="-150" width="1800" fill="#000000" y="-74.999999" height="899.999994" fill-opacity="0.12"/></g></mask><clipPath id="03b83eff20"><path d="M 1 0.679688 L 159.480469 0.679688 L 159.480469 159.320312 L 1 159.320312 Z M 1 0.679688 " clip-rule="nonzero"/></clipPath><clipPath id="157ddd0707"><rect x="0" width="160" y="0" height="160"/></clipPath><mask id="4b50e42fe2"><g filter="url(#ec9bf36529)"><rect x="-150" width="1800" fill="#000000" y="-74.999999" height="899.999994" fill-opacity="0.35"/></g></mask><clipPath id="70f487ef00"><path d="M 0.398438 0.839844 L 269.679688 0.839844 L 269.679688 127.800781 L 0.398438 127.800781 Z M 0.398438 0.839844 " clip-rule="nonzero"/></clipPath><clipPath id="0f4f17b7df"><rect x="0" width="270" y="0" height="128"/></clipPath><clipPath id="10bd6cc7a0"><rect x="0" width="707" y="0" height="167"/></clipPath></defs><g clip-path="url(#d078b6e88c)"><g clip-path="url(#c3feaeb6ef)"><path fill="url(#ba01bcd361)" d="M 103.261719 185.066406 L 103.261719 564.566406 L 483.125 564.566406 L 483.125 185.066406 Z M 103.261719 185.066406 " fill-rule="nonzero"/></g></g><g mask="url(#a5dce3c2c1)"><g transform="matrix(1, 0, 0, 1, 213, 295)"><g clip-path="url(#157ddd0707)"><g clip-path="url(#03b83eff20)"><path fill="#0f0f10" d="M 159.332031 80 C 159.332031 81.292969 159.300781 82.589844 159.238281 83.882812 C 159.175781 85.175781 159.078125 86.46875 158.953125 87.757812 C 158.824219 89.046875 158.667969 90.332031 158.476562 91.613281 C 158.285156 92.894531 158.066406 94.167969 157.8125 95.4375 C 157.558594 96.710938 157.277344 97.972656 156.960938 99.230469 C 156.648438 100.484375 156.300781 101.734375 155.925781 102.972656 C 155.550781 104.210938 155.144531 105.441406 154.707031 106.660156 C 154.269531 107.878906 153.804688 109.089844 153.308594 110.285156 C 152.8125 111.480469 152.289062 112.664062 151.734375 113.835938 C 151.179688 115.007812 150.597656 116.164062 149.988281 117.304688 C 149.378906 118.449219 148.738281 119.574219 148.074219 120.683594 C 147.40625 121.796875 146.714844 122.890625 145.996094 123.964844 C 145.277344 125.042969 144.53125 126.101562 143.757812 127.140625 C 142.988281 128.183594 142.191406 129.203125 141.371094 130.203125 C 140.546875 131.207031 139.703125 132.1875 138.832031 133.144531 C 137.960938 134.105469 137.070312 135.042969 136.152344 135.957031 C 135.238281 136.875 134.300781 137.765625 133.339844 138.636719 C 132.382812 139.507812 131.402344 140.351562 130.398438 141.175781 C 129.398438 141.996094 128.378906 142.792969 127.335938 143.5625 C 126.296875 144.335938 125.238281 145.082031 124.160156 145.800781 C 123.085938 146.519531 121.992188 147.210938 120.878906 147.878906 C 119.769531 148.542969 118.644531 149.183594 117.5 149.792969 C 116.359375 150.402344 115.203125 150.984375 114.03125 151.539062 C 112.859375 152.09375 111.675781 152.617188 110.480469 153.113281 C 109.285156 153.609375 108.074219 154.074219 106.855469 154.511719 C 105.636719 154.949219 104.40625 155.355469 103.167969 155.730469 C 101.929688 156.105469 100.679688 156.453125 99.425781 156.765625 C 98.167969 157.082031 96.902344 157.363281 95.632812 157.617188 C 94.363281 157.871094 93.089844 158.089844 91.808594 158.28125 C 90.527344 158.472656 89.242188 158.628906 87.953125 158.757812 C 86.664062 158.882812 85.371094 158.980469 84.078125 159.042969 C 82.785156 159.105469 81.488281 159.136719 80.195312 159.136719 C 78.898438 159.136719 77.605469 159.105469 76.3125 159.042969 C 75.019531 158.980469 73.726562 158.882812 72.4375 158.757812 C 71.148438 158.628906 69.863281 158.472656 68.582031 158.28125 C 67.300781 158.089844 66.027344 157.871094 64.753906 157.617188 C 63.484375 157.363281 62.222656 157.082031 60.964844 156.765625 C 59.710938 156.453125 58.460938 156.105469 57.222656 155.730469 C 55.984375 155.355469 54.753906 154.949219 53.535156 154.511719 C 52.316406 154.074219 51.105469 153.609375 49.910156 153.113281 C 48.714844 152.617188 47.53125 152.09375 46.359375 151.539062 C 45.1875 150.984375 44.03125 150.402344 42.890625 149.792969 C 41.746094 149.183594 40.621094 148.542969 39.507812 147.878906 C 38.398438 147.210938 37.304688 146.519531 36.226562 145.800781 C 35.152344 145.082031 34.09375 144.335938 33.050781 143.5625 C 32.011719 142.792969 30.992188 141.996094 29.988281 141.175781 C 28.988281 140.351562 28.007812 139.507812 27.050781 138.636719 C 26.089844 137.765625 25.152344 136.875 24.234375 135.957031 C 23.320312 135.042969 22.425781 134.105469 21.558594 133.144531 C 20.6875 132.1875 19.84375 131.207031 19.019531 130.203125 C 18.199219 129.203125 17.402344 128.183594 16.628906 127.140625 C 15.859375 126.101562 15.113281 125.042969 14.394531 123.964844 C 13.675781 122.890625 12.980469 121.796875 12.316406 120.683594 C 11.648438 119.574219 11.011719 118.449219 10.402344 117.304688 C 9.789062 116.164062 9.207031 115.007812 8.65625 113.835938 C 8.101562 112.664062 7.578125 111.480469 7.082031 110.285156 C 6.585938 109.089844 6.121094 107.878906 5.683594 106.660156 C 5.246094 105.441406 4.839844 104.210938 4.464844 102.972656 C 4.089844 101.734375 3.742188 100.484375 3.429688 99.230469 C 3.113281 97.972656 2.828125 96.710938 2.578125 95.4375 C 2.324219 94.167969 2.101562 92.894531 1.914062 91.613281 C 1.722656 90.332031 1.566406 89.046875 1.4375 87.757812 C 1.3125 86.46875 1.214844 85.175781 1.152344 83.882812 C 1.089844 82.589844 1.058594 81.292969 1.058594 80 C 1.058594 78.703125 1.089844 77.410156 1.152344 76.117188 C 1.214844 74.824219 1.3125 73.53125 1.4375 72.242188 C 1.566406 70.953125 1.722656 69.667969 1.914062 68.386719 C 2.101562 67.105469 2.324219 65.832031 2.578125 64.5625 C 2.828125 63.289062 3.113281 62.027344 3.429688 60.769531 C 3.742188 59.515625 4.089844 58.265625 4.464844 57.027344 C 4.839844 55.789062 5.246094 54.558594 5.683594 53.339844 C 6.121094 52.121094 6.585938 50.910156 7.082031 49.714844 C 7.578125 48.519531 8.101562 47.335938 8.65625 46.164062 C 9.207031 44.992188 9.789062 43.835938 10.402344 42.695312 C 11.011719 41.550781 11.648438 40.425781 12.316406 39.316406 C 12.980469 38.203125 13.675781 37.109375 14.394531 36.03125 C 15.113281 34.957031 15.859375 33.898438 16.628906 32.855469 C 17.402344 31.816406 18.199219 30.796875 19.019531 29.792969 C 19.84375 28.792969 20.6875 27.8125 21.558594 26.855469 C 22.425781 25.894531 23.320312 24.957031 24.234375 24.039062 C 25.152344 23.125 26.089844 22.230469 27.050781 21.363281 C 28.007812 20.492188 28.988281 19.648438 29.988281 18.824219 C 30.992188 18.003906 32.011719 17.207031 33.050781 16.433594 C 34.09375 15.664062 35.152344 14.917969 36.226562 14.199219 C 37.304688 13.480469 38.398438 12.785156 39.507812 12.121094 C 40.621094 11.453125 41.746094 10.816406 42.890625 10.207031 C 44.03125 9.59375 45.1875 9.011719 46.359375 8.460938 C 47.53125 7.90625 48.714844 7.382812 49.910156 6.886719 C 51.105469 6.390625 52.316406 5.925781 53.535156 5.488281 C 54.753906 5.050781 55.984375 4.644531 57.222656 4.269531 C 58.460938 3.894531 59.710938 3.546875 60.964844 3.234375 C 62.222656 2.917969 63.484375 2.636719 64.753906 2.382812 C 66.027344 2.128906 67.300781 1.90625 68.582031 1.71875 C 69.863281 1.527344 71.148438 1.371094 72.4375 1.242188 C 73.726562 1.117188 75.019531 1.019531 76.3125 0.957031 C 77.605469 0.894531 78.898438 0.863281 80.195312 0.863281 C 81.488281 0.863281 82.785156 0.894531 84.078125 0.957031 C 85.371094 1.019531 86.664062 1.117188 87.953125 1.242188 C 89.242188 1.371094 90.527344 1.527344 91.808594 1.71875 C 93.089844 1.90625 94.363281 2.128906 95.632812 2.382812 C 96.902344 2.636719 98.167969 2.917969 99.425781 3.234375 C 100.679688 3.546875 101.929688 3.894531 103.167969 4.269531 C 104.40625 4.644531 105.636719 5.050781 106.855469 5.488281 C 108.074219 5.925781 109.285156 6.390625 110.480469 6.886719 C 111.675781 7.382812 112.859375 7.90625 114.03125 8.460938 C 115.203125 9.011719 116.359375 9.59375 117.5 10.207031 C 118.644531 10.816406 119.769531 11.453125 120.878906 12.121094 C 121.992188 12.785156 123.085938 13.480469 124.160156 14.199219 C 125.238281 14.917969 126.296875 15.664062 127.335938 16.433594 C 128.378906 17.207031 129.398438 18.003906 130.398438 18.824219 C 131.402344 19.648438 132.382812 20.492188 133.339844 21.363281 C 134.300781 22.230469 135.238281 23.125 136.152344 24.039062 C 137.070312 24.957031 137.960938 25.894531 138.832031 26.855469 C 139.703125 27.8125 140.546875 28.792969 141.371094 29.796875 C 142.191406 30.796875 142.988281 31.816406 143.757812 32.855469 C 144.53125 33.898438 145.277344 34.957031 145.996094 36.03125 C 146.714844 37.109375 147.40625 38.203125 148.074219 39.316406 C 148.738281 40.425781 149.378906 41.550781 149.988281 42.695312 C 150.597656 43.835938 151.179688 44.992188 151.734375 46.164062 C 152.289062 47.335938 152.8125 48.519531 153.308594 49.714844 C 153.804688 50.910156 154.269531 52.121094 154.707031 53.339844 C 155.144531 54.558594 155.550781 55.789062 155.925781 57.027344 C 156.300781 58.265625 156.648438 59.515625 156.960938 60.769531 C 157.277344 62.027344 157.558594 63.289062 157.8125 64.5625 C 158.066406 65.832031 158.285156 67.105469 158.476562 68.386719 C 158.667969 69.667969 158.824219 70.953125 158.953125 72.242188 C 159.078125 73.53125 159.175781 74.824219 159.238281 76.117188 C 159.300781 77.410156 159.332031 78.703125 159.332031 80 Z M 159.332031 80 " fill-opacity="1" fill-rule="nonzero"/></g></g></g></g><g mask="url(#4b50e42fe2)"><g transform="matrix(1, 0, 0, 1, 182, 279)"><g clip-path="url(#0f4f17b7df)"><g clip-path="url(#70f487ef00)"><path stroke-linecap="round" transform="matrix(7.913818, 0, 0, 7.913818, -78.736697, -93.931967)" fill="none" stroke-linejoin="miter" d="M 14.000233 24.000042 C 21.999986 15.999795 31.999802 24.000042 40.000049 15.999795 " stroke="#0f0f10" stroke-width="2" stroke-opacity="1" stroke-miterlimit="4"/></g></g></g></g><g transform="matrix(1, 0, 0, 1, 574, 300)"><g clip-path="url(#10bd6cc7a0)"><g fill="#ffffff" fill-opacity="1"><g transform="translate(0.596881, 131.353783)"><g><path d="M 12.734375 -94.84375 L 54.1875 -94.84375 C 64.3125 -94.84375 73.300781 -92.875 81.15625 -88.9375 C 89.007812 -85.007812 95.101562 -79.457031 99.4375 -72.28125 C 103.78125 -65.101562 105.953125 -56.816406 105.953125 -47.421875 C 105.953125 -38.023438 103.78125 -29.734375 99.4375 -22.546875 C 95.101562 -15.367188 89.007812 -9.816406 81.15625 -5.890625 C 73.300781 -1.960938 64.3125 0 54.1875 0 L 12.734375 0 Z M 53.375 -14.90625 C 60.332031 -14.90625 66.453125 -16.234375 71.734375 -18.890625 C 77.023438 -21.554688 81.09375 -25.351562 83.9375 -30.28125 C 86.78125 -35.207031 88.203125 -40.921875 88.203125 -47.421875 C 88.203125 -53.921875 86.78125 -59.628906 83.9375 -64.546875 C 81.09375 -69.472656 77.023438 -73.269531 71.734375 -75.9375 C 66.453125 -78.601562 60.332031 -79.9375 53.375 -79.9375 L 30.34375 -79.9375 L 30.34375 -14.90625 Z M 53.375 -14.90625 "/></g></g></g><g fill="#ffffff" fill-opacity="1"><g transform="translate(112.508216, 131.353783)"><g><path d="M 81.15625 -72.34375 L 81.15625 0 L 65.03125 0 L 65.03125 -9.21875 C 62.320312 -5.957031 58.9375 -3.445312 54.875 -1.6875 C 50.8125 0.0703125 46.429688 0.953125 41.734375 0.953125 C 32.066406 0.953125 24.453125 -1.734375 18.890625 -7.109375 C 13.335938 -12.484375 10.5625 -20.457031 10.5625 -31.03125 L 10.5625 -72.34375 L 27.5 -72.34375 L 27.5 -33.328125 C 27.5 -26.828125 28.96875 -21.972656 31.90625 -18.765625 C 34.84375 -15.554688 39.019531 -13.953125 44.4375 -13.953125 C 50.488281 -13.953125 55.296875 -15.828125 58.859375 -19.578125 C 62.429688 -23.328125 64.21875 -28.722656 64.21875 -35.765625 L 64.21875 -72.34375 Z M 81.15625 -72.34375 "/></g></g></g><g fill="#ffffff" fill-opacity="1"><g transform="translate(204.774094, 131.353783)"><g><path d="M 33.46875 0.953125 C 27.59375 0.953125 21.851562 0.1875 16.25 -1.34375 C 10.65625 -2.882812 6.1875 -4.832031 2.84375 -7.1875 L 9.34375 -20.046875 C 12.59375 -17.878906 16.5 -16.140625 21.0625 -14.828125 C 25.625 -13.523438 30.117188 -12.875 34.546875 -12.875 C 44.660156 -12.875 49.71875 -15.535156 49.71875 -20.859375 C 49.71875 -23.390625 48.429688 -25.148438 45.859375 -26.140625 C 43.285156 -27.140625 39.15625 -28.09375 33.46875 -29 C 27.5 -29.894531 22.640625 -30.929688 18.890625 -32.109375 C 15.148438 -33.285156 11.898438 -35.335938 9.140625 -38.265625 C 6.390625 -41.203125 5.015625 -45.289062 5.015625 -50.53125 C 5.015625 -57.394531 7.878906 -62.878906 13.609375 -66.984375 C 19.347656 -71.097656 27.097656 -73.15625 36.859375 -73.15625 C 41.816406 -73.15625 46.78125 -72.59375 51.75 -71.46875 C 56.71875 -70.34375 60.785156 -68.828125 63.953125 -66.921875 L 57.453125 -54.0625 C 51.304688 -57.675781 44.394531 -59.484375 36.71875 -59.484375 C 31.75 -59.484375 27.976562 -58.734375 25.40625 -57.234375 C 22.832031 -55.742188 21.546875 -53.78125 21.546875 -51.34375 C 21.546875 -48.632812 22.921875 -46.710938 25.671875 -45.578125 C 28.429688 -44.453125 32.703125 -43.394531 38.484375 -42.40625 C 44.265625 -41.5 49.003906 -40.457031 52.703125 -39.28125 C 56.410156 -38.113281 59.59375 -36.128906 62.25 -33.328125 C 64.914062 -30.523438 66.25 -26.550781 66.25 -21.40625 C 66.25 -14.632812 63.3125 -9.210938 57.4375 -5.140625 C 51.570312 -1.078125 43.582031 0.953125 33.46875 0.953125 Z M 33.46875 0.953125 "/></g></g></g><g fill="#ffffff" fill-opacity="1"><g transform="translate(274.549323, 131.353783)"><g><path d="M 54.59375 -3.921875 C 52.613281 -2.296875 50.195312 -1.078125 47.34375 -0.265625 C 44.5 0.546875 41.5 0.953125 38.34375 0.953125 C 30.394531 0.953125 24.25 -1.125 19.90625 -5.28125 C 15.570312 -9.4375 13.40625 -15.488281 13.40625 -23.4375 L 13.40625 -58.265625 L 1.484375 -58.265625 L 1.484375 -71.8125 L 13.40625 -71.8125 L 13.40625 -88.328125 L 30.34375 -88.328125 L 30.34375 -71.8125 L 49.71875 -71.8125 L 49.71875 -58.265625 L 30.34375 -58.265625 L 30.34375 -23.84375 C 30.34375 -20.320312 31.203125 -17.632812 32.921875 -15.78125 C 34.640625 -13.925781 37.125 -13 40.375 -13 C 44.164062 -13 47.328125 -13.992188 49.859375 -15.984375 Z M 54.59375 -3.921875 "/></g></g></g><g fill="#ffffff" fill-opacity="1"><g transform="translate(331.995336, 131.353783)"><g><path d="M 12.734375 -94.84375 L 54.1875 -94.84375 C 64.3125 -94.84375 73.300781 -92.875 81.15625 -88.9375 C 89.007812 -85.007812 95.101562 -79.457031 99.4375 -72.28125 C 103.78125 -65.101562 105.953125 -56.816406 105.953125 -47.421875 C 105.953125 -38.023438 103.78125 -29.734375 99.4375 -22.546875 C 95.101562 -15.367188 89.007812 -9.816406 81.15625 -5.890625 C 73.300781 -1.960938 64.3125 0 54.1875 0 L 12.734375 0 Z M 53.375 -14.90625 C 60.332031 -14.90625 66.453125 -16.234375 71.734375 -18.890625 C 77.023438 -21.554688 81.09375 -25.351562 83.9375 -30.28125 C 86.78125 -35.207031 88.203125 -40.921875 88.203125 -47.421875 C 88.203125 -53.921875 86.78125 -59.628906 83.9375 -64.546875 C 81.09375 -69.472656 77.023438 -73.269531 71.734375 -75.9375 C 66.453125 -78.601562 60.332031 -79.9375 53.375 -79.9375 L 30.34375 -79.9375 L 30.34375 -14.90625 Z M 53.375 -14.90625 "/></g></g></g><g fill="#ffffff" fill-opacity="1"><g transform="translate(443.906653, 131.353783)"><g><path d="M 79.125 -35.765625 C 79.125 -34.585938 79.035156 -32.914062 78.859375 -30.75 L 22.078125 -30.75 C 23.078125 -25.425781 25.675781 -21.203125 29.875 -18.078125 C 34.070312 -14.960938 39.285156 -13.40625 45.515625 -13.40625 C 53.472656 -13.40625 60.023438 -16.023438 65.171875 -21.265625 L 74.25 -10.84375 C 71 -6.957031 66.890625 -4.019531 61.921875 -2.03125 C 56.953125 -0.0390625 51.347656 0.953125 45.109375 0.953125 C 37.160156 0.953125 30.160156 -0.625 24.109375 -3.78125 C 18.054688 -6.945312 13.378906 -11.351562 10.078125 -17 C 6.785156 -22.644531 5.140625 -29.035156 5.140625 -36.171875 C 5.140625 -43.210938 6.742188 -49.554688 9.953125 -55.203125 C 13.160156 -60.847656 17.609375 -65.25 23.296875 -68.40625 C 28.992188 -71.570312 35.410156 -73.15625 42.546875 -73.15625 C 49.585938 -73.15625 55.882812 -71.597656 61.4375 -68.484375 C 67 -65.367188 71.335938 -60.988281 74.453125 -55.34375 C 77.566406 -49.695312 79.125 -43.171875 79.125 -35.765625 Z M 42.546875 -59.609375 C 37.117188 -59.609375 32.53125 -58.003906 28.78125 -54.796875 C 25.039062 -51.597656 22.765625 -47.332031 21.953125 -42 L 63 -42 C 62.28125 -47.238281 60.066406 -51.484375 56.359375 -54.734375 C 52.660156 -57.984375 48.054688 -59.609375 42.546875 -59.609375 Z M 42.546875 -59.609375 "/></g></g></g><g fill="#ffffff" fill-opacity="1"><g transform="translate(528.178898, 131.353783)"><g><path d="M 79.125 -35.765625 C 79.125 -34.585938 79.035156 -32.914062 78.859375 -30.75 L 22.078125 -30.75 C 23.078125 -25.425781 25.675781 -21.203125 29.875 -18.078125 C 34.070312 -14.960938 39.285156 -13.40625 45.515625 -13.40625 C 53.472656 -13.40625 60.023438 -16.023438 65.171875 -21.265625 L 74.25 -10.84375 C 71 -6.957031 66.890625 -4.019531 61.921875 -2.03125 C 56.953125 -0.0390625 51.347656 0.953125 45.109375 0.953125 C 37.160156 0.953125 30.160156 -0.625 24.109375 -3.78125 C 18.054688 -6.945312 13.378906 -11.351562 10.078125 -17 C 6.785156 -22.644531 5.140625 -29.035156 5.140625 -36.171875 C 5.140625 -43.210938 6.742188 -49.554688 9.953125 -55.203125 C 13.160156 -60.847656 17.609375 -65.25 23.296875 -68.40625 C 28.992188 -71.570312 35.410156 -73.15625 42.546875 -73.15625 C 49.585938 -73.15625 55.882812 -71.597656 61.4375 -68.484375 C 67 -65.367188 71.335938 -60.988281 74.453125 -55.34375 C 77.566406 -49.695312 79.125 -43.171875 79.125 -35.765625 Z M 42.546875 -59.609375 C 37.117188 -59.609375 32.53125 -58.003906 28.78125 -54.796875 C 25.039062 -51.597656 22.765625 -47.332031 21.953125 -42 L 63 -42 C 62.28125 -47.238281 60.066406 -51.484375 56.359375 -54.734375 C 52.660156 -57.984375 48.054688 -59.609375 42.546875 -59.609375 Z M 42.546875 -59.609375 "/></g></g></g><g fill="#ffffff" fill-opacity="1"><g transform="translate(612.451072, 131.353783)"><g><path d="M 51.21875 -73.15625 C 58.257812 -73.15625 64.554688 -71.617188 70.109375 -68.546875 C 75.671875 -65.484375 80.03125 -61.148438 83.1875 -55.546875 C 86.34375 -49.953125 87.921875 -43.492188 87.921875 -36.171875 C 87.921875 -28.859375 86.34375 -22.378906 83.1875 -16.734375 C 80.03125 -11.085938 75.671875 -6.726562 70.109375 -3.65625 C 64.554688 -0.582031 58.257812 0.953125 51.21875 0.953125 C 41.457031 0.953125 33.734375 -2.300781 28.046875 -8.8125 L 28.046875 26.28125 L 11.109375 26.28125 L 11.109375 -72.34375 L 27.234375 -72.34375 L 27.234375 -62.859375 C 30.035156 -66.296875 33.488281 -68.867188 37.59375 -70.578125 C 41.707031 -72.296875 46.25 -73.15625 51.21875 -73.15625 Z M 49.3125 -13.546875 C 55.550781 -13.546875 60.675781 -15.625 64.6875 -19.78125 C 68.707031 -23.9375 70.71875 -29.398438 70.71875 -36.171875 C 70.71875 -42.941406 68.707031 -48.40625 64.6875 -52.5625 C 60.675781 -56.71875 55.550781 -58.796875 49.3125 -58.796875 C 45.25 -58.796875 41.59375 -57.867188 38.34375 -56.015625 C 35.09375 -54.171875 32.519531 -51.53125 30.625 -48.09375 C 28.726562 -44.664062 27.78125 -40.691406 27.78125 -36.171875 C 27.78125 -31.660156 28.726562 -27.6875 30.625 -24.25 C 32.519531 -20.820312 35.09375 -18.179688 38.34375 -16.328125 C 41.59375 -14.472656 45.25 -13.546875 49.3125 -13.546875 Z M 49.3125 -13.546875 "/></g></g></g></g></g></svg>